<svg width="30" height="30" viewBox="0 0 30 30" fill="none" xmlns="http://www.w3.org/2000/svg">
<g clip-path="url(#clip0)">
<path fill-rule="evenodd" clip-rule="evenodd" d="M28.125 22.5V11.25C28.125 10.7527 27.9275 10.2758 27.5758 9.92418C27.2242 9.57254 26.7473 9.375 26.25 9.375H24.0525C22.5614 9.37418 21.1317 8.78138 20.0775 7.72687L18.5212 6.17438C18.1706 5.82364 17.6953 5.6261 17.1994 5.625H12.8025C12.3053 5.62511 11.8284 5.82272 11.4769 6.17438L9.92438 7.72687C8.86973 8.78184 7.43922 9.37468 5.9475 9.375H3.75C3.25272 9.375 2.77581 9.57254 2.42417 9.92418C2.07254 10.2758 1.875 10.7527 1.875 11.25V22.5C1.875 22.9973 2.07254 23.4742 2.42417 23.8258C2.77581 24.1775 3.25272 24.375 3.75 24.375H26.25C26.7473 24.375 27.2242 24.1775 27.5758 23.8258C27.9275 23.4742 28.125 22.9973 28.125 22.5ZM3.75 7.5C2.75544 7.5 1.80161 7.89509 1.09835 8.59835C0.395088 9.30161 0 10.2554 0 11.25L0 22.5C0 23.4946 0.395088 24.4484 1.09835 25.1516C1.80161 25.8549 2.75544 26.25 3.75 26.25H26.25C27.2446 26.25 28.1984 25.8549 28.9016 25.1516C29.6049 24.4484 30 23.4946 30 22.5V11.25C30 10.2554 29.6049 9.30161 28.9016 8.59835C28.1984 7.89509 27.2446 7.5 26.25 7.5H24.0525C23.058 7.49979 22.1043 7.10456 21.4012 6.40125L19.8488 4.84875C19.1457 4.14544 18.192 3.75021 17.1975 3.75H12.8025C11.808 3.75021 10.8543 4.14544 10.1512 4.84875L8.59875 6.40125C7.89565 7.10456 6.94198 7.49979 5.9475 7.5H3.75Z" fill="#FF7C5E"/>
<path fill-rule="evenodd" clip-rule="evenodd" d="M15 20.625C16.2432 20.625 17.4355 20.1311 18.3146 19.2521C19.1936 18.373 19.6875 17.1807 19.6875 15.9375C19.6875 14.6943 19.1936 13.502 18.3146 12.6229C17.4355 11.7439 16.2432 11.25 15 11.25C13.7568 11.25 12.5645 11.7439 11.6854 12.6229C10.8064 13.502 10.3125 14.6943 10.3125 15.9375C10.3125 17.1807 10.8064 18.373 11.6854 19.2521C12.5645 20.1311 13.7568 20.625 15 20.625ZM15 22.5C16.7405 22.5 18.4097 21.8086 19.6404 20.5779C20.8711 19.3472 21.5625 17.678 21.5625 15.9375C21.5625 14.197 20.8711 12.5278 19.6404 11.2971C18.4097 10.0664 16.7405 9.375 15 9.375C13.2595 9.375 11.5903 10.0664 10.3596 11.2971C9.1289 12.5278 8.4375 14.197 8.4375 15.9375C8.4375 17.678 9.1289 19.3472 10.3596 20.5779C11.5903 21.8086 13.2595 22.5 15 22.5Z" fill="#FF7C5E"/>
<path d="M5.625 12.1875C5.625 12.4361 5.52623 12.6746 5.35041 12.8504C5.1746 13.0262 4.93614 13.125 4.6875 13.125C4.43886 13.125 4.2004 13.0262 4.02459 12.8504C3.84877 12.6746 3.75 12.4361 3.75 12.1875C3.75 11.9389 3.84877 11.7004 4.02459 11.5246C4.2004 11.3488 4.43886 11.25 4.6875 11.25C4.93614 11.25 5.1746 11.3488 5.35041 11.5246C5.52623 11.7004 5.625 11.9389 5.625 12.1875Z" fill="#FF7C5E"/>
</g>
<defs>
<clipPath id="clip0">
<rect width="30" height="30" fill="white"/>
</clipPath>
</defs>
</svg>
