<svg width="31" height="31" viewBox="0 0 31 31" fill="none" xmlns="http://www.w3.org/2000/svg">
<path d="M25.9539 2.58334C25.9539 2.35496 25.8632 2.13593 25.7017 1.97444C25.5402 1.81295 25.3212 1.72223 25.0928 1.72223H6.14834C5.91996 1.72223 5.70093 1.81295 5.53945 1.97444C5.37796 2.13593 5.28723 2.35496 5.28723 2.58334V3.44445H25.9539V2.58334Z" fill="#FF7C5E"/>
<path d="M27.6588 6.02777C27.6588 5.79939 27.5681 5.58036 27.4066 5.41887C27.2451 5.25738 27.0261 5.16666 26.7977 5.16666H4.40884C4.18046 5.16666 3.96143 5.25738 3.79994 5.41887C3.63845 5.58036 3.54773 5.79939 3.54773 6.02777V6.88888H27.6588V6.02777Z" fill="#FF7C5E"/>
<path d="M27.6588 8.61111H3.34106C2.9117 8.61111 2.49993 8.78168 2.19633 9.08528C1.89273 9.38888 1.72217 9.80065 1.72217 10.23V25.9367C1.72217 26.366 1.89273 26.7778 2.19633 27.0814C2.49993 27.385 2.9117 27.5556 3.34106 27.5556H27.6588C28.0882 27.5556 28.5 27.385 28.8036 27.0814C29.1072 26.7778 29.2777 26.366 29.2777 25.9367V10.23C29.2777 9.80065 29.1072 9.38888 28.8036 9.08528C28.5 8.78168 28.0882 8.61111 27.6588 8.61111ZM7.37106 11.5819C7.88199 11.5819 8.38145 11.7335 8.80628 12.0173C9.23111 12.3012 9.56222 12.7046 9.75775 13.1767C9.95327 13.6487 10.0044 14.1681 9.90475 14.6693C9.80507 15.1704 9.55903 15.6307 9.19775 15.992C8.83646 16.3533 8.37616 16.5993 7.87504 16.699C7.37392 16.7987 6.8545 16.7475 6.38246 16.552C5.91042 16.3564 5.50695 16.0253 5.22309 15.6005C4.93923 15.1757 4.78772 14.6762 4.78772 14.1653C4.78772 13.4801 5.0599 12.8231 5.54436 12.3386C6.02883 11.8541 6.68591 11.5819 7.37106 11.5819ZM25.8333 24.1111H5.16661L11.5905 17.6786C11.705 17.565 11.8598 17.5013 12.0211 17.5013C12.1823 17.5013 12.3371 17.565 12.4516 17.6786L15.6205 20.8475L19.9863 16.3611C20.1008 16.2475 20.2556 16.1838 20.4169 16.1838C20.5782 16.1838 20.7329 16.2475 20.8474 16.3611L25.8333 21.3469V24.1111Z" fill="#FF7C5E"/>
</svg>
